<?xml version="1.0" encoding="UTF-8"?>
<svg id="Layer_1" data-name="Layer 1" xmlns="http://www.w3.org/2000/svg" viewBox="0 0 2449.85 1465">
  <defs>
    <style>
      .cls-1 {
        fill-rule: evenodd;
      }

      .cls-1, .cls-2 {
        fill: #fff;
        stroke-width: 0px;
      }
    </style>
  </defs>
  <path class="cls-2" d="M690.39,532.06c0,30.15,3.26,54.59,8.96,72.52,6.52,17.93,14.67,37.48,26.07,58.67,4.07,6.52,5.7,13.04,5.7,18.74,0,8.15-4.89,16.3-15.48,24.44l-51.33,34.22c-7.33,4.89-14.67,7.33-21.18,7.33-8.15,0-16.3-4.07-24.44-11.41-11.41-12.22-21.18-25.26-29.33-38.3-8.15-13.85-16.3-29.33-25.26-48.07-63.55,74.96-143.4,112.44-239.55,112.44-68.44,0-123.03-19.56-162.96-58.67s-60.29-91.26-60.29-156.44c0-69.26,24.44-125.48,74.15-167.85s115.7-63.55,199.62-63.55c27.7,0,56.22,2.44,86.37,6.52s61.11,10.59,93.7,17.93v-59.48c0-61.92-13.04-105.11-38.3-130.37-26.07-25.26-70.07-37.48-132.81-37.48-28.52,0-57.85,3.26-88,10.59s-59.48,16.3-88,27.7c-13.04,5.7-22.81,8.96-28.52,10.59s-9.78,2.44-13.04,2.44c-11.41,0-17.11-8.15-17.11-25.26v-39.92c0-13.04,1.63-22.81,5.7-28.52s11.41-11.41,22.81-17.11c28.52-14.67,62.74-26.89,102.66-36.67,39.92-10.59,82.29-15.48,127.11-15.48,96.96,0,167.85,22,213.48,66,44.81,44,67.63,110.81,67.63,200.44v263.99h1.63ZM359.59,655.91c26.89,0,54.59-4.89,83.92-14.67s55.41-27.7,77.41-52.15c13.04-15.48,22.81-32.59,27.7-52.15s8.15-43.18,8.15-70.89v-34.22c-23.63-5.7-48.89-10.59-74.96-13.85s-51.33-4.89-76.59-4.89c-54.59,0-94.52,10.59-121.4,32.59s-39.92,52.96-39.92,93.7c0,38.3,9.78,66.81,30.15,86.37,19.56,20.37,48.07,30.15,85.55,30.15h0ZM1013.86,743.91c-14.67,0-24.44-2.44-30.96-8.15-6.52-4.89-12.22-16.3-17.11-31.78L774.32,74.15c-4.89-16.3-7.33-26.89-7.33-32.59,0-13.04,6.52-20.37,19.56-20.37h79.85c15.48,0,26.07,2.44,31.78,8.15,6.52,4.89,11.41,16.3,16.3,31.78l136.89,539.39,127.11-539.39c4.07-16.3,8.96-26.89,15.48-31.78s17.93-8.15,32.59-8.15h65.18c15.48,0,26.07,2.44,32.59,8.15,6.52,4.89,12.22,16.3,15.48,31.78l128.74,545.91L1609.48,61.11c4.89-16.3,10.59-26.89,16.3-31.78,6.52-4.89,17.11-8.15,31.78-8.15h75.78c13.04,0,20.37,6.52,20.37,20.37,0,4.07-.81,8.15-1.63,13.04-.81,4.89-2.44,11.41-5.7,20.37l-196.37,629.84c-4.89,16.3-10.59,26.89-17.11,31.78s-17.11,8.15-30.96,8.15h-70.07c-15.48,0-26.07-2.44-32.59-8.15s-12.22-16.3-15.48-32.59l-126.29-525.54-125.48,524.73c-4.07,16.3-8.96,26.89-15.48,32.59s-17.93,8.15-32.59,8.15h-70.07ZM2060.88,765.91c-42.37,0-84.74-4.89-125.48-14.67s-72.52-20.37-93.7-32.59c-13.04-7.33-22-15.48-25.26-22.81s-4.89-15.48-4.89-22.81v-41.55c0-17.11,6.52-25.26,18.74-25.26,4.89,0,9.78.81,14.67,2.44s12.22,4.89,20.37,8.15c27.7,12.22,57.85,22,89.63,28.52,32.59,6.52,64.37,9.78,96.96,9.78,51.33,0,91.26-8.96,118.96-26.89s42.37-44,42.37-77.41c0-22.81-7.33-41.55-22-57.04s-42.37-29.33-82.29-42.37l-118.15-36.67c-59.48-18.74-103.48-46.44-130.37-83.11-26.89-35.85-40.74-75.78-40.74-118.15,0-34.22,7.33-64.37,22-90.44s34.22-48.89,58.67-66.81c24.44-18.74,52.15-32.59,84.74-42.37s66.81-13.85,102.66-13.85c17.93,0,36.67.81,54.59,3.26,18.74,2.44,35.85,5.7,52.96,8.96,16.3,4.07,31.78,8.15,46.44,13.04,14.67,4.89,26.07,9.78,34.22,14.67,11.41,6.52,19.56,13.04,24.44,20.37,4.89,6.52,7.33,15.48,7.33,26.89v38.3c0,17.11-6.52,26.07-18.74,26.07-6.52,0-17.11-3.26-30.96-9.78-46.44-21.18-98.59-31.78-156.44-31.78-46.44,0-83.11,7.33-108.37,22.81s-38.3,39.11-38.3,72.52c0,22.81,8.15,42.37,24.44,57.85s46.44,30.96,89.63,44.81l115.7,36.67c58.67,18.74,101.03,44.81,126.29,78.22s37.48,71.7,37.48,114.07c0,35.04-7.33,66.81-21.18,94.52-14.67,27.7-34.22,52.15-59.48,71.7-25.26,20.37-55.41,35.04-90.44,45.63-36.67,11.41-74.96,17.11-116.52,17.11h0Z"/>
  <g>
    <path class="cls-1" d="M2214.87,1161.9c-268.07,198-657.54,303.1-992.42,303.1-469.32,0-892.2-173.55-1211.6-461.99-25.26-22.81-2.44-53.78,27.7-35.85,345.47,200.44,771.61,321.84,1212.41,321.84,297.4,0,624.13-61.92,924.79-189.03,44.81-20.37,83.11,29.33,39.11,61.92Z"/>
    <path class="cls-1" d="M2326.5,1034.79c-34.22-44-226.51-21.18-313.7-10.59-26.07,3.26-30.15-19.56-6.52-36.67,153.18-107.55,404.95-76.59,434.29-40.74,29.33,36.67-8.15,288.44-151.55,409.03-22,18.74-43.18,8.96-33.41-15.48,32.59-80.66,105.11-262.36,70.89-305.55Z"/>
  </g>
</svg>