<svg width="842" height="161" viewBox="0 0 842 161" fill="none" xmlns="http://www.w3.org/2000/svg">
<path d="M0.5 160.81H140.01V135.72H25.6V93.2H108.81V68.11H25.6V25.6H140.01V0.5H0.5V160.81Z" fill="white"/>
<path d="M203.89 0.5H178.79V160.81H318.3V135.72H203.89V0.5Z" fill="white"/>
<path d="M357.08 160.81H496.58V135.72H382.17V93.2H465.38V68.11H382.17V25.6H496.58V0.5H357.08V160.81Z" fill="white"/>
<path d="M670.3 0.5L616.86 104.72L563.43 0.5H535.37L616.86 160.81L698.36 0.5H670.3Z" fill="white"/>
<path d="M775.76 155.81L841.61 160.81L760.11 0.5L678.61 160.81L744.59 155.81V132.28L721.37 134.04L760.11 56.59L798.85 134.03L775.76 132.31V155.81Z" fill="white"/>
</svg>
