<svg id="Layer_1" data-name="Layer 1" xmlns="http://www.w3.org/2000/svg" viewBox="0 0 658 180"><title>off-by-none-logo</title><path d="M11.28,114.55c0-19.29,13.77-30.35,29-30.35s29,11.06,29,30.35-13.77,30.2-29,30.2S11.28,133.69,11.28,114.55Zm44.06,0c0-11.61-5.65-19.26-15.07-19.26s-15.08,7.65-15.08,19.26,5.65,19.12,15.08,19.12S55.34,126.09,55.34,114.55Z" style="fill:#cce6f4"/><path d="M77.85,86.24l16.28-.63h35V96.38H77.85Zm15.87-3.77c0-13.61,7.55-23.54,24.59-23.54a48.62,48.62,0,0,1,17.07,3.2l-2.8,10.05a32.07,32.07,0,0,0-12.72-2.49c-8.81,0-12.62,4.47-12.62,12.56v61.09H93.72Z" style="fill:#cce6f4"/><path d="M142.3,86.24l16.27-.63h35V96.38H142.3Zm15.86-3.77c0-13.61,7.55-23.54,24.6-23.54a48.56,48.56,0,0,1,17.06,3.2L197,72.18a32.07,32.07,0,0,0-12.72-2.49c-8.8,0-12.62,4.47-12.62,12.56v61.09H158.16Z" style="fill:#cce6f4"/><path d="M197.42,99.66h52.36v9.79H197.42Z" style="fill:#cce6f4"/><path d="M275.18,137h-.39l-1.2,6.34h-10.7v-83h13.6V81.76l-.56,10.1h.4a25.73,25.73,0,0,1,17.52-7.66c15,0,23.62,11.53,23.62,29.29,0,19.82-12.23,31.26-25.49,31.26C286.47,144.75,280.21,142,275.18,137Zm28.37-23.3c0-11.5-4.05-18.25-13.39-18.25-4.36,0-9,2.07-13.67,6.91V128.3a19.44,19.44,0,0,0,12.68,5.21C297.23,133.51,303.55,126.77,303.55,113.7Z" style="fill:#cce6f4"/><path d="M325.86,165.83l2.56-10.52a16.94,16.94,0,0,0,4.83.78c7.34,0,11.56-4.06,13.91-9.82l1.38-3.63-25.87-57h13.58l11.8,28.22c2.15,5.27,4.32,11.23,6.41,17h.47c1.78-5.62,3.88-11.61,5.72-17l10.4-28.22H384L359.89,146c-5,13-11.9,21-25.82,21A28.23,28.23,0,0,1,325.86,165.83Z" style="fill:#cce6f4"/><path d="M390.82,99.66h52.36v9.79H390.82Z" style="fill:#cce6f4"/><path d="M453.63,114.55c0-19.29,13.77-30.35,29-30.35s29,11.06,29,30.35-13.77,30.2-29,30.2S453.63,133.69,453.63,114.55Zm44.06,0c0-11.61-5.65-19.26-15.07-19.26s-15.07,7.65-15.07,19.26,5.65,19.12,15.07,19.12S497.69,126.09,497.69,114.55Z" style="fill:#cce6f4"/><path d="M524.44,85.61h11.1l1,8.69h.47c5.52-5.58,12-10.1,20.82-10.1,13.34,0,19.36,8.51,19.36,23.38v35.76h-13.6v-34c0-9.26-3-13.5-10.76-13.5-5.7,0-9.55,2.77-14.84,8.12v39.37H524.44Z" style="fill:#cce6f4"/><path d="M589.68,114.4c0-18.83,14.31-30.2,29.76-30.2,17.24,0,26.79,11.43,26.79,27.4a45.79,45.79,0,0,1-.6,6.83H599.38v-9.59h37.47l-2.6,3c0-11.4-5.36-17.2-14.4-17.2-9.55,0-16.9,6.88-16.9,19.76,0,13.43,8.08,19.83,20.09,19.83,6,0,11-1.77,16.19-4.71l4.65,8.42a42,42,0,0,1-22.62,6.81C603.58,144.75,589.68,133.62,589.68,114.4Z" style="fill:#cce6f4"/><path d="M456.41,162.46c-.88,1.14-1.69,1.17-2.42.11q-3.81-5.65-9.19-20.83a53.71,53.71,0,0,1-12.41,12.71,15.41,15.41,0,0,1-2.37,2.73,2.23,2.23,0,0,1-1.31.23q-2.31-.43-1.7-3.76a3.33,3.33,0,0,1,1.64-2.39,9,9,0,0,0,2.42-.48q9.21-6.93,12.82-14.16,1.62-3.33,2.82-.12,2.24,5.9,4.45,11.88a62,62,0,0,0,5.51,10.87A2.43,2.43,0,0,1,456.41,162.46Z" style="fill:#d70a3d;stroke:#d70a3d;stroke-miterlimit:10;stroke-width:4px"/><path d="M435.08,76.72a2.17,2.17,0,0,1-2.26.29,1.81,1.81,0,0,1-1.12-2.08q.33-4.17,2.58-18.09a102.37,102.37,0,0,0,1.27-18.72,66.1,66.1,0,0,0-1.93-14.32c-.41-1.65.25-2.51,2-2.56a1.86,1.86,0,0,1,2,1.53,71.43,71.43,0,0,1,2,15.23,98.23,98.23,0,0,1-.23,10.37q10-21,22.24-31.37,2.73-2.34,4.54-2.4,4.17-.12,5.41,11.65.12,1.2.49,14.13.33,11.34-.37,34.06a1.86,1.86,0,0,1-2,2,1.81,1.81,0,0,1-2.11-2.14q.7-22.63.38-33.83-.51-17.46-2.14-21.58-4.61,2.94-11.38,12.21a130.71,130.71,0,0,0-12.11,20.41q-6.63,14-6,23.1A1.83,1.83,0,0,1,435.08,76.72Z" style="fill:#d70a3d;stroke:#d70a3d;stroke-miterlimit:10;stroke-width:6px"/></svg>