<?xml version="1.0" encoding="UTF-8"?><svg id="Livello_1" xmlns="http://www.w3.org/2000/svg" viewBox="0 0 1287.34 503.11"><defs><style>.cls-1{fill:#fff;}</style></defs><g><path class="cls-1" d="M823.31,206.9c-4.76,0-8.61,3.85-8.61,8.61v37.57l-79.34-105.96c-2.22-2.97-6.1-4.18-9.61-3.01-3.51,1.17-5.89,4.46-5.89,8.17v63.23c0,4.76,3.85,8.61,8.61,8.61s8.61-3.85,8.61-8.61v-37.37l79.34,105.96c1.66,2.21,4.23,3.45,6.89,3.45,.91,0,1.83-.14,2.72-.44,3.51-1.17,5.89-4.46,5.89-8.17v-63.43c0-4.76-3.85-8.61-8.61-8.61Z"/><path class="cls-1" d="M426.9,144.67c-4.27-2.11-9.43-.36-11.54,3.9l-54.81,110.85-54.81-110.85c-2.11-4.26-7.26-6-11.54-3.9-4.26,2.11-6.01,7.27-3.9,11.53l62.53,126.45c1.45,2.94,4.44,4.79,7.72,4.79s6.27-1.86,7.72-4.79l62.53-126.45c2.11-4.26,.36-9.43-3.9-11.53Z"/><path class="cls-1" d="M556.72,143.78h-95.06c-4.76,0-8.61,3.85-8.61,8.61s3.85,8.61,8.61,8.61h95.06c4.76,0,8.61-3.85,8.61-8.61s-3.85-8.61-8.61-8.61Z"/><path class="cls-1" d="M529.48,224.22c4.76,0,8.61-3.85,8.61-8.61s-3.85-8.61-8.61-8.61h-64.25c-4.76,0-8.61,3.85-8.61,8.61s3.85,8.61,8.61,8.61h64.25Z"/><path class="cls-1" d="M556.59,270.23h-94.79c-4.76,0-8.61,3.85-8.61,8.61s3.85,8.61,8.61,8.61h94.79c4.76,0,8.61-3.85,8.61-8.61s-3.85-8.61-8.61-8.61Z"/><path class="cls-1" d="M956.95,143.78h-95.06c-4.76,0-8.61,3.85-8.61,8.61s3.85,8.61,8.61,8.61h95.06c4.76,0,8.61-3.85,8.61-8.61s-3.85-8.61-8.61-8.61Z"/><path class="cls-1" d="M929.7,224.22c4.76,0,8.61-3.85,8.61-8.61s-3.85-8.61-8.61-8.61h-64.24c-4.76,0-8.61,3.85-8.61,8.61s3.85,8.61,8.61,8.61h64.24Z"/><path class="cls-1" d="M956.81,270.23h-94.79c-4.76,0-8.61,3.85-8.61,8.61s3.85,8.61,8.61,8.61h94.79c4.76,0,8.61-3.85,8.61-8.61s-3.85-8.61-8.61-8.61Z"/><path class="cls-1" d="M215.51,143.78c-39.61,0-71.84,32.23-71.84,71.84s32.23,71.84,71.84,71.84,71.84-32.23,71.84-71.84-32.23-71.84-71.84-71.84Zm0,126.45c-30.12,0-54.62-24.5-54.62-54.62s24.5-54.62,54.62-54.62,54.62,24.5,54.62,54.62-24.5,54.62-54.62,54.62Z"/><path class="cls-1" d="M698.49,184.05c0-22.18-18.04-40.22-40.22-40.22h-63.23c-4.76,0-8.61,3.85-8.61,8.61s3.85,8.61,8.61,8.61h63.23c12.69,0,23,10.32,23,23s-10.32,23-22.99,23l-14.72-.02c-.66-.09-1.33-.07-2,0l-46.51-.08h-.01c-2.28,0-4.47,.9-6.08,2.52-1.62,1.61-2.53,3.81-2.53,6.09v63.23c0,4.76,3.85,8.61,8.61,8.61s8.61-3.85,8.61-8.61v-54.6l34.56,.06,44.78,59.71c1.69,2.25,4.28,3.44,6.89,3.44,1.8,0,3.61-.56,5.16-1.72,3.8-2.85,4.57-8.25,1.72-12.05l-37.06-49.42c21.51-.76,38.79-18.46,38.79-40.15Z"/><path class="cls-1" d="M1090.37,143.78h-94.84c-4.76,0-8.61,3.85-8.61,8.61s3.85,8.61,8.61,8.61h38.81v117.84c0,4.76,3.85,8.61,8.61,8.61s8.61-3.85,8.61-8.61v-117.84h38.81c4.76,0,8.61-3.85,8.61-8.61s-3.85-8.61-8.61-8.61Z"/><path class="cls-1" d="M1130.79,261.84c-7.11,0-12.88,5.77-12.88,12.88s5.77,12.88,12.88,12.88,12.88-5.77,12.88-12.88-5.77-12.88-12.88-12.88Z"/></g><g><path class="cls-1" d="M178.64,323.82v32.1h-4.15v-5.86c-2.26,3.9-6.41,6.16-11.53,6.16-8.18,0-13.55-4.58-13.55-13.79v-18.61h4.33v18.18c0,6.83,3.54,10.31,9.64,10.31,6.71,0,10.92-4.33,10.92-11.65v-16.84h4.33Z"/><path class="cls-1" d="M229.71,339.87c0,9.76-6.83,16.35-15.99,16.35-5.12,0-9.52-2.2-12.2-6.35v17.88h-4.33v-43.93h4.15v6.35c2.62-4.27,7.08-6.59,12.39-6.59,9.15,0,15.99,6.59,15.99,16.29Zm-4.33,0c0-7.44-5.19-12.51-11.96-12.51s-11.96,5.06-11.96,12.51,5.13,12.51,11.96,12.51,11.96-5,11.96-12.51Z"/><path class="cls-1" d="M274.68,323.82v28.19c0,11.04-5.43,16.05-16.05,16.05-5.86,0-11.59-1.77-14.95-4.94l2.2-3.29c3.05,2.75,7.69,4.39,12.63,4.39,8.12,0,11.84-3.72,11.84-11.65v-4.09c-2.68,4.09-7.26,6.22-12.51,6.22-9.15,0-16.11-6.41-16.11-15.62s6.96-15.5,16.11-15.5c5.37,0,10.01,2.2,12.69,6.41v-6.16h4.15Zm-4.21,15.26c0-6.96-5.12-11.72-12.2-11.72s-12.14,4.76-12.14,11.72,5.06,11.78,12.14,11.78,12.2-4.82,12.2-11.78Z"/><path class="cls-1" d="M309.4,323.58v4.21c-.37,0-.73-.06-1.04-.06-6.71,0-10.8,4.27-10.8,11.84v16.35h-4.33v-32.1h4.15v6.29c2.01-4.27,6.1-6.53,12.02-6.53Z"/><path class="cls-1" d="M347.79,336.02v19.89h-4.15v-5c-1.95,3.29-5.74,5.31-11.04,5.31-7.26,0-11.72-3.78-11.72-9.34,0-4.94,3.17-9.09,12.39-9.09h10.19v-1.95c0-5.49-3.11-8.48-9.09-8.48-4.15,0-8.05,1.46-10.68,3.78l-1.95-3.23c3.23-2.75,7.99-4.33,13.06-4.33,8.3,0,13,4.15,13,12.45Zm-4.33,10.25v-5.25h-10.07c-6.22,0-8.24,2.44-8.24,5.74,0,3.72,2.99,6.04,8.12,6.04s8.48-2.32,10.19-6.53Z"/><path class="cls-1" d="M395.38,310.64v45.28h-4.15v-6.35c-2.62,4.33-7.08,6.65-12.39,6.65-9.15,0-15.99-6.65-15.99-16.35s6.83-16.29,15.99-16.29c5.13,0,9.52,2.2,12.2,6.35v-19.28h4.33Zm-4.27,29.23c0-7.51-5.13-12.51-11.9-12.51s-11.96,5-11.96,12.51,5.13,12.51,11.96,12.51,11.9-5,11.9-12.51Z"/><path class="cls-1" d="M441.82,341.21h-26.85c.49,6.71,5.61,11.17,12.63,11.17,3.91,0,7.38-1.4,9.82-4.21l2.44,2.81c-2.87,3.42-7.32,5.25-12.39,5.25-10.01,0-16.84-6.83-16.84-16.35s6.65-16.29,15.68-16.29,15.56,6.65,15.56,16.29c0,.37-.06,.85-.06,1.34Zm-26.85-3.23h22.76c-.55-6.29-5.12-10.68-11.41-10.68s-10.8,4.39-11.35,10.68Z"/><path class="cls-1" d="M506.5,323.82l-16.05,35.94c-2.69,6.29-6.1,8.3-10.68,8.3-2.99,0-5.86-.98-7.81-2.93l2.01-3.23c1.59,1.59,3.54,2.44,5.86,2.44,2.87,0,4.82-1.34,6.65-5.37l1.4-3.11-14.34-32.04h4.52l12.08,27.28,12.08-27.28h4.27Z"/><path class="cls-1" d="M514.86,339.87c0-9.52,6.96-16.29,16.35-16.29s16.29,6.77,16.29,16.29-6.89,16.35-16.29,16.35-16.35-6.83-16.35-16.35Zm28.25,0c0-7.51-5.07-12.51-11.9-12.51s-11.96,5-11.96,12.51,5.13,12.51,11.96,12.51,11.9-5,11.9-12.51Z"/><path class="cls-1" d="M591.69,323.82v32.1h-4.15v-5.86c-2.26,3.9-6.41,6.16-11.53,6.16-8.18,0-13.55-4.58-13.55-13.79v-18.61h4.33v18.18c0,6.83,3.54,10.31,9.64,10.31,6.71,0,10.92-4.33,10.92-11.65v-16.84h4.33Z"/><path class="cls-1" d="M626.41,323.58v4.21c-.37,0-.73-.06-1.04-.06-6.71,0-10.8,4.27-10.8,11.84v16.35h-4.33v-32.1h4.15v6.29c2.01-4.27,6.1-6.53,12.02-6.53Z"/><path class="cls-1" d="M692.8,310.64v45.28h-4.15v-6.35c-2.62,4.33-7.08,6.65-12.39,6.65-9.15,0-15.99-6.65-15.99-16.35s6.83-16.29,15.99-16.29c5.13,0,9.52,2.2,12.2,6.35v-19.28h4.33Zm-4.27,29.23c0-7.51-5.13-12.51-11.9-12.51s-11.96,5-11.96,12.51,5.13,12.51,11.96,12.51,11.9-5,11.9-12.51Z"/><path class="cls-1" d="M710.31,313.69c0-1.65,1.4-3.05,3.17-3.05s3.17,1.34,3.17,2.99c0,1.77-1.34,3.17-3.17,3.17s-3.17-1.4-3.17-3.11Zm.98,10.13h4.33v32.1h-4.33v-32.1Z"/><path class="cls-1" d="M763.83,323.82v28.19c0,11.04-5.43,16.05-16.05,16.05-5.86,0-11.59-1.77-14.95-4.94l2.2-3.29c3.05,2.75,7.69,4.39,12.63,4.39,8.12,0,11.84-3.72,11.84-11.65v-4.09c-2.68,4.09-7.26,6.22-12.51,6.22-9.15,0-16.11-6.41-16.11-15.62s6.96-15.5,16.11-15.5c5.37,0,10.01,2.2,12.69,6.41v-6.16h4.15Zm-4.21,15.26c0-6.96-5.12-11.72-12.2-11.72s-12.14,4.76-12.14,11.72,5.06,11.78,12.14,11.78,12.2-4.82,12.2-11.78Z"/><path class="cls-1" d="M781.4,313.69c0-1.65,1.4-3.05,3.17-3.05s3.17,1.34,3.17,2.99c0,1.77-1.34,3.17-3.17,3.17s-3.17-1.4-3.17-3.11Zm.98,10.13h4.33v32.1h-4.33v-32.1Z"/><path class="cls-1" d="M822.1,353.96c-1.71,1.53-4.27,2.26-6.77,2.26-6.04,0-9.4-3.42-9.4-9.34v-19.4h-5.74v-3.66h5.74v-7.02h4.33v7.02h9.76v3.66h-9.76v19.16c0,3.78,1.95,5.86,5.55,5.86,1.77,0,3.54-.55,4.76-1.65l1.53,3.11Z"/><path class="cls-1" d="M860.61,336.02v19.89h-4.15v-5c-1.95,3.29-5.74,5.31-11.04,5.31-7.26,0-11.72-3.78-11.72-9.34,0-4.94,3.17-9.09,12.39-9.09h10.19v-1.95c0-5.49-3.11-8.48-9.09-8.48-4.15,0-8.05,1.46-10.68,3.78l-1.95-3.23c3.23-2.75,7.99-4.33,13.06-4.33,8.3,0,13,4.15,13,12.45Zm-4.33,10.25v-5.25h-10.07c-6.22,0-8.24,2.44-8.24,5.74,0,3.72,2.99,6.04,8.12,6.04s8.48-2.32,10.19-6.53Z"/><path class="cls-1" d="M878.79,310.64h4.33v45.28h-4.33v-45.28Z"/><path class="cls-1" d="M919.56,352.26l1.95-3.42c2.56,2.01,6.9,3.6,11.41,3.6,6.1,0,8.6-2.07,8.6-5.25,0-8.36-20.81-1.77-20.81-14.46,0-5.25,4.52-9.15,12.69-9.15,4.15,0,8.66,1.16,11.35,2.99l-1.89,3.48c-2.81-1.95-6.16-2.75-9.46-2.75-5.8,0-8.36,2.26-8.36,5.31,0,8.66,20.81,2.14,20.81,14.46,0,5.55-4.88,9.15-13.24,9.15-5.31,0-10.43-1.71-13.06-3.97Z"/><path class="cls-1" d="M972.15,339.81l-7.57,6.96v9.15h-4.33v-45.28h4.33v30.69l19.16-17.51h5.37l-13.73,13.12,15.01,18.98h-5.31l-12.94-16.11Z"/><path class="cls-1" d="M1001.87,313.69c0-1.65,1.4-3.05,3.17-3.05s3.17,1.34,3.17,2.99c0,1.77-1.34,3.17-3.17,3.17s-3.17-1.4-3.17-3.11Zm.98,10.13h4.33v32.1h-4.33v-32.1Z"/><path class="cls-1" d="M1025.67,310.64h4.33v45.28h-4.33v-45.28Z"/><path class="cls-1" d="M1048.49,310.64h4.33v45.28h-4.33v-45.28Z"/><path class="cls-1" d="M1066.86,352.26l1.95-3.42c2.56,2.01,6.9,3.6,11.41,3.6,6.1,0,8.6-2.07,8.6-5.25,0-8.36-20.81-1.77-20.81-14.46,0-5.25,4.52-9.15,12.69-9.15,4.15,0,8.66,1.16,11.35,2.99l-1.89,3.48c-2.81-1.95-6.16-2.75-9.46-2.75-5.8,0-8.36,2.26-8.36,5.31,0,8.66,20.81,2.14,20.81,14.46,0,5.55-4.88,9.15-13.24,9.15-5.31,0-10.43-1.71-13.06-3.97Z"/></g></svg>