<svg width="176" height="25" viewBox="0 0 176 25" fill="none" xmlns="http://www.w3.org/2000/svg">
<path d="M18.4019 11.4797H21.5502L14.9856 1.26074C11.3852 2.98602 8.73923 6.37023 8.05263 10.4014C7.98565 10.4014 7.93541 10.3848 7.86842 10.3848C3.79904 10.3848 0.5 13.6529 0.5 17.6841C0.5 21.7153 3.79904 24.9834 7.86842 24.9834H20.0431C20.1938 24.9834 20.3278 25 20.4785 25C20.6962 25 20.9139 25 21.1316 24.9834H27.8301L18.4019 11.4797Z" fill="#2A64F3"/>
<path d="M33.6412 7.29927C33.0885 7.29927 32.5526 7.34904 32.0167 7.44857C30.0574 3.06901 25.6364 0 20.4785 0C19.4737 0 18.5024 0.116125 17.5479 0.331785L26.7751 14.5654H23.6268L30.9617 24.9502H34.1268V24.9336C38.8158 24.6682 42.5335 20.8195 42.5335 16.1082C42.5502 11.2641 38.5646 7.29927 33.6412 7.29927Z" fill="#2A64F3"/>
<path d="M55.1603 19.26C55.1603 18.7458 54.9761 18.3642 54.6077 18.0822C54.2393 17.8168 53.5862 17.5182 52.6484 17.2195C51.6938 16.9209 50.957 16.6223 50.4043 16.3237C48.8972 15.5109 48.1436 14.4325 48.1436 13.0722C48.1436 12.3589 48.3445 11.7285 48.7464 11.1811C49.1484 10.617 49.7345 10.1857 50.4881 9.8705C51.2417 9.55531 52.0957 9.40601 53.0335 9.40601C53.9713 9.40601 54.8254 9.5719 55.5622 9.92027C56.2991 10.2521 56.8852 10.7331 57.2871 11.3635C57.689 11.9773 57.9067 12.6907 57.9067 13.4704H55.1771C55.1771 12.8732 54.9929 12.4087 54.6077 12.0603C54.2225 11.7285 53.6866 11.5626 53 11.5626C52.3134 11.5626 51.811 11.6953 51.4426 11.9773C51.0742 12.2594 50.89 12.6243 50.89 13.0888C50.89 13.5201 51.1077 13.8685 51.5431 14.1671C51.9785 14.4491 52.6149 14.7312 53.4522 14.98C55.0096 15.4445 56.1316 16.0251 56.8517 16.7053C57.5551 17.3854 57.9235 18.2481 57.9235 19.26C57.9235 20.4047 57.4881 21.2839 56.6173 21.9309C55.7464 22.5779 54.5742 22.8931 53.1173 22.8931C52.0957 22.8931 51.1747 22.7106 50.3374 22.3456C49.5 21.9807 48.8637 21.4664 48.4283 20.8194C47.9929 20.1724 47.7751 19.4259 47.7751 18.5799H50.5216C50.5216 20.0231 51.3924 20.7531 53.1507 20.7531C53.8039 20.7531 54.3062 20.6203 54.6747 20.3549C54.9761 20.0895 55.1603 19.7245 55.1603 19.26Z" fill="white"/>
<path d="M63.6339 22.8766C62.1602 22.8766 60.9545 22.4287 60.0167 21.5329C59.0956 20.637 58.6267 19.4426 58.6267 17.9496V17.6842C58.6267 16.6888 58.8277 15.7764 59.2128 14.9967C59.598 14.2004 60.1506 13.6032 60.8707 13.1719C61.5908 12.7406 62.4114 12.5249 63.3325 12.5249C64.7057 12.5249 65.7942 12.9562 66.5813 13.8189C67.3683 14.6815 67.7703 15.9091 67.7703 17.4851V18.58H61.3564C61.4401 19.227 61.708 19.7578 62.1435 20.156C62.5789 20.5541 63.1315 20.7532 63.8013 20.7532C64.8396 20.7532 65.6435 20.3882 66.2296 19.6417L67.5525 21.1015C67.1506 21.6656 66.598 22.1135 65.9114 22.4287C65.2248 22.7273 64.4712 22.8766 63.6339 22.8766ZM63.3157 14.6815C62.7798 14.6815 62.3444 14.864 62.0095 15.2124C61.6746 15.5773 61.4569 16.0916 61.3731 16.7552H65.1243V16.5395C65.1076 15.9423 64.9569 15.4944 64.6387 15.1626C64.3372 14.8474 63.9018 14.6815 63.3157 14.6815Z" fill="white"/>
<path d="M74.1675 15.4279C73.7991 15.3782 73.4809 15.3616 73.1962 15.3616C72.1747 15.3616 71.5048 15.71 71.1867 16.3901V22.9263H68.4905V12.9396H71.0359L71.1029 14.134C71.6388 13.2216 72.3924 12.7571 73.3469 12.7571C73.6484 12.7571 73.9163 12.7903 74.1843 12.8732L74.1675 15.4279Z" fill="white"/>
<path d="M79.3086 19.6417L81.1842 12.9065H83.9976L80.5981 22.8932H78.0191L74.6196 12.9231H77.433L79.3086 19.6417Z" fill="white"/>
<path d="M88.9544 22.8766C87.4808 22.8766 86.275 22.4287 85.3372 21.5329C84.4162 20.637 83.9473 19.4426 83.9473 17.9496V17.6842C83.9473 16.6888 84.1482 15.7764 84.5334 14.9967C84.9186 14.2004 85.4712 13.6032 86.1913 13.1719C86.9114 12.7406 87.732 12.5249 88.653 12.5249C90.0262 12.5249 91.1147 12.9562 91.9018 13.8189C92.6889 14.6815 93.0908 15.9091 93.0908 17.4851V18.58H86.6769C86.7607 19.227 87.0286 19.7578 87.464 20.156C87.8994 20.5541 88.4521 20.7532 89.1219 20.7532C90.1602 20.7532 90.964 20.3882 91.5501 19.6417L92.8731 21.1015C92.4712 21.6656 91.9186 22.1135 91.232 22.4287C90.5454 22.7273 89.7918 22.8766 88.9544 22.8766ZM88.6363 14.6815C88.1004 14.6815 87.665 14.864 87.33 15.2124C86.9951 15.5773 86.7774 16.0916 86.6937 16.7552H90.4449V16.5395C90.4281 15.9423 90.2774 15.4944 89.9592 15.1626C89.6578 14.8474 89.2056 14.6815 88.6363 14.6815Z" fill="white"/>
<path d="M99.689 15.4279C99.3206 15.3782 99.0024 15.3616 98.7177 15.3616C97.6962 15.3616 97.0263 15.71 96.7081 16.3901V22.9263H94.012V12.9396H96.5574L96.6244 14.134C97.1603 13.2216 97.9139 12.7571 98.8684 12.7571C99.1699 12.7571 99.4378 12.7903 99.7057 12.8732L99.689 15.4279Z" fill="white"/>
<path d="M103.574 22.9096H100.928V9.3894H103.574V22.9096Z" fill="white"/>
<path d="M109.804 22.8932C108.33 22.8932 107.108 22.4453 106.187 21.5494C105.249 20.6536 104.797 19.4426 104.797 17.9496V17.6841C104.797 16.6722 104.998 15.7764 105.383 14.9801C105.768 14.1838 106.337 13.57 107.057 13.1553C107.777 12.724 108.598 12.5083 109.519 12.5083C110.909 12.5083 111.981 12.9396 112.785 13.8023C113.572 14.6649 113.974 15.8925 113.974 17.4685V18.5634H107.543C107.627 19.2104 107.895 19.7412 108.33 20.1394C108.766 20.5375 109.318 20.7366 110.005 20.7366C111.043 20.7366 111.864 20.3716 112.45 19.6251L113.773 21.1015C113.371 21.6656 112.818 22.1135 112.132 22.4287C111.411 22.7273 110.641 22.8932 109.804 22.8932ZM109.502 14.6649C108.966 14.6649 108.531 14.8474 108.196 15.1958C107.861 15.5607 107.644 16.075 107.56 16.7386H111.311V16.5229C111.294 15.9257 111.144 15.4612 110.825 15.146C110.507 14.8308 110.072 14.6649 109.502 14.6649Z" fill="white"/>
<path d="M120.588 19.9403C120.588 19.6085 120.421 19.3597 120.103 19.1606C119.768 18.9781 119.249 18.8122 118.529 18.6629C116.134 18.1652 114.928 17.1533 114.928 15.6271C114.928 14.7313 115.297 14.0013 116.05 13.4041C116.787 12.8069 117.775 12.5083 118.964 12.5083C120.254 12.5083 121.275 12.8069 122.045 13.4041C122.816 14.0013 123.201 14.781 123.201 15.7432H120.505C120.505 15.3617 120.387 15.0465 120.136 14.7976C119.885 14.5488 119.5 14.4161 118.964 14.4161C118.512 14.4161 118.16 14.5156 117.909 14.7147C117.658 14.9137 117.541 15.1792 117.541 15.4944C117.541 15.793 117.675 16.0252 117.959 16.2077C118.244 16.3902 118.713 16.5395 119.399 16.6722C120.086 16.8049 120.639 16.9542 121.091 17.1201C122.514 17.6344 123.234 18.5302 123.234 19.8076C123.234 20.72 122.832 21.4665 122.045 22.0305C121.258 22.5946 120.237 22.8766 118.981 22.8766C118.127 22.8766 117.39 22.7273 116.72 22.4287C116.067 22.1301 115.548 21.7153 115.179 21.2011C114.811 20.6868 114.627 20.1228 114.627 19.509H117.155C117.172 19.9901 117.356 20.355 117.691 20.6039C118.026 20.8527 118.462 20.9854 119.014 20.9854C119.533 20.9854 119.919 20.8859 120.187 20.6868C120.454 20.5043 120.588 20.2555 120.588 19.9403Z" fill="white"/>
<path d="M130.033 19.9403C130.033 19.6085 129.866 19.3597 129.548 19.1606C129.213 18.9781 128.694 18.8122 127.974 18.6629C125.579 18.1652 124.373 17.1533 124.373 15.6271C124.373 14.7313 124.742 14.0013 125.495 13.4041C126.232 12.8069 127.22 12.5083 128.409 12.5083C129.699 12.5083 130.72 12.8069 131.49 13.4041C132.261 14.0013 132.646 14.781 132.646 15.7432H129.95C129.95 15.3617 129.833 15.0465 129.581 14.7976C129.33 14.5488 128.945 14.4161 128.409 14.4161C127.957 14.4161 127.605 14.5156 127.354 14.7147C127.103 14.9137 126.986 15.1792 126.986 15.4944C126.986 15.793 127.12 16.0252 127.404 16.2077C127.689 16.3902 128.158 16.5395 128.845 16.6722C129.531 16.8049 130.084 16.9542 130.536 17.1201C131.959 17.6344 132.679 18.5302 132.679 19.8076C132.679 20.72 132.278 21.4665 131.49 22.0305C130.703 22.5946 129.682 22.8766 128.426 22.8766C127.572 22.8766 126.835 22.7273 126.165 22.4287C125.512 22.1301 124.993 21.7153 124.624 21.2011C124.256 20.6868 124.072 20.1228 124.072 19.509H126.634C126.651 19.9901 126.835 20.355 127.17 20.6039C127.505 20.8527 127.94 20.9854 128.493 20.9854C129.012 20.9854 129.397 20.8859 129.665 20.6868C129.9 20.5043 130.033 20.2555 130.033 19.9403Z" fill="white"/>
<path d="M148.22 21.0516C147.734 21.6323 147.031 22.0802 146.127 22.412C145.222 22.7272 144.234 22.8931 143.146 22.8931C141.99 22.8931 140.986 22.6442 140.132 22.1465C139.261 21.6489 138.591 20.9355 138.122 19.9899C137.653 19.0443 137.402 17.9329 137.402 16.6555V15.7597C137.402 14.4491 137.62 13.3211 138.072 12.3589C138.524 11.3967 139.16 10.6668 139.998 10.1525C140.835 9.63824 141.823 9.3894 142.945 9.3894C144.519 9.3894 145.742 9.75437 146.629 10.5009C147.517 11.2474 148.036 12.3257 148.203 13.7358H145.541C145.423 12.9893 145.155 12.4418 144.737 12.0769C144.318 11.7285 143.749 11.546 143.029 11.546C142.108 11.546 141.388 11.8944 140.902 12.5911C140.416 13.2879 140.165 14.3164 140.165 15.6767V16.5228C140.165 17.8997 140.433 18.9448 140.952 19.6416C141.488 20.3383 142.258 20.7033 143.28 20.7033C144.301 20.7033 145.038 20.4876 145.474 20.0563V17.8002H142.995V15.8094H148.22V21.0516Z" fill="white"/>
<path d="M155.94 21.682C155.27 22.4783 154.349 22.8931 153.177 22.8931C152.088 22.8931 151.268 22.5779 150.698 21.9641C150.129 21.3502 149.844 20.4378 149.828 19.26V12.6907H152.524V19.1605C152.524 20.2056 153.009 20.7199 153.964 20.7199C154.919 20.7199 155.505 20.4047 155.856 19.7743V12.6741H158.569V22.694H156.024L155.94 21.682Z" fill="white"/>
<path d="M165.887 15.1958C165.519 15.146 165.201 15.1294 164.916 15.1294C163.895 15.1294 163.225 15.4778 162.907 16.1579V22.7107H160.21V12.6908H162.756L162.823 13.8852C163.359 12.9728 164.112 12.5083 165.067 12.5083C165.368 12.5083 165.653 12.5415 165.904 12.6244L165.887 15.1958Z" fill="white"/>
<path d="M172.871 21.682C172.201 22.4783 171.28 22.8931 170.108 22.8931C169.019 22.8931 168.198 22.5779 167.629 21.9641C167.06 21.3502 166.775 20.4378 166.758 19.26V12.6907H169.454V19.1605C169.454 20.2056 169.94 20.7199 170.895 20.7199C171.849 20.7199 172.435 20.4047 172.787 19.7743V12.6741H175.5V22.694H172.954L172.871 21.682Z" fill="white"/>
</svg>
